<svg width="26" height="25" viewBox="0 0 26 25" fill="none" xmlns="http://www.w3.org/2000/svg">
<path d="M23.1188 0.578613H2.81832C1.56763 0.578613 0.553467 1.54448 0.553467 2.73562V22.0694C0.553467 23.2605 1.56763 24.2264 2.81832 24.2264H23.1188C24.3695 24.2264 25.3837 23.2605 25.3837 22.0694V2.73562C25.3837 1.54448 24.3695 0.578613 23.1188 0.578613ZM18.5251 13.9789H14.6238V17.6945C14.6238 18.5646 13.8827 19.2714 12.9681 19.2714C12.0534 19.2714 11.3123 18.5656 11.3123 17.6945V13.9789H7.40997C6.49631 13.9789 5.75421 13.2731 5.75421 12.402C5.75421 11.5309 6.49529 10.8251 7.40997 10.8251H11.3123V7.10958C11.3123 6.23846 12.0534 5.53267 12.9681 5.53267C13.8827 5.53267 14.6238 6.23846 14.6238 7.10958V10.8251H18.5251C19.4388 10.8251 20.1809 11.5309 20.1809 12.402C20.1809 13.2731 19.4398 13.9789 18.5251 13.9789Z" fill="#141414"/>
</svg>
