<svg width="16" height="16" viewBox="0 0 16 16" fill="none" xmlns="http://www.w3.org/2000/svg">
<g id="Layer_1" clip-path="url(#clip0_1080_1105)">
<path id="Vector" d="M7.99979 15.9996C12.4179 15.9996 15.9996 12.4179 15.9996 7.99979C15.9996 3.58163 12.4179 0 7.99979 0C3.58163 0 0 3.58163 0 7.99979C0 12.4179 3.58163 15.9996 7.99979 15.9996Z" fill="#29ABE2"/>
<path id="Vector_2" d="M12.5346 7.20318C12.5346 6.38421 11.799 6.16127 11.4098 6.15789L10.0735 6.15239C10.0713 6.15239 9.8501 6.14689 9.83276 5.99376C9.79722 5.67353 9.87887 5.55847 10.0523 5.34865C10.252 5.1071 10.5993 4.41123 10.6678 3.91291C10.7346 3.4277 10.5574 2.69756 10.2207 2.44671C10.1327 2.38114 10.04 2.34814 9.94486 2.34814C9.68131 2.34814 9.47573 2.60534 9.42919 2.85366C9.41735 2.91626 9.40762 2.9793 9.39789 3.04021C9.34374 3.38413 9.28748 3.73947 8.87503 4.29828C8.61784 4.64727 8.48289 4.75388 8.35218 4.85709C8.22527 4.95777 8.09371 5.06184 7.88431 5.34526C7.73118 5.55212 7.58651 5.80297 7.43252 6.06863C7.24259 6.3969 7.04588 6.73659 6.82379 7.00901C6.69773 7.16342 6.28613 7.33982 6.28613 7.33982V11.4423C6.28613 11.4423 6.44307 11.5988 6.49045 11.6352C6.53402 11.6686 6.688 11.7659 6.87329 11.7659H11.1285C11.1336 11.7659 11.1386 11.7659 11.1433 11.7651C11.1564 11.7638 11.1712 11.7625 11.1869 11.7617C11.3759 11.7477 11.8184 11.716 11.9149 11.1593C11.9559 10.9232 11.8463 10.7426 11.7744 10.6127C11.9335 10.5163 12.1556 10.3424 12.2 10.0544C12.2461 9.75612 12.1099 9.53615 12.005 9.38471C12.1945 9.27557 12.4225 9.06237 12.4644 8.70491C12.5071 8.33688 12.3269 8.09364 12.1793 7.94432C12.3349 7.80895 12.5346 7.57671 12.5346 7.2036V7.20318Z" fill="white"/>
<path id="Vector_3" d="M5.56388 7.31995H3.85995C3.68904 7.31995 3.55029 7.4587 3.55029 7.63002V11.7452C3.55029 11.9165 3.68904 12.0553 3.85995 12.0553H5.56388C5.73521 12.0553 5.87354 11.9165 5.87354 11.7452V7.63002C5.87354 7.4587 5.73478 7.31995 5.56388 7.31995Z" fill="white"/>
</g>
<defs>
<clipPath id="clip0_1080_1105">
<rect width="16" height="16" fill="white"/>
</clipPath>
</defs>
</svg>
