<svg width="26" height="22" viewBox="0 0 26 22" fill="none" xmlns="http://www.w3.org/2000/svg">
<path fill-rule="evenodd" clip-rule="evenodd" d="M12.6413 21.7775H4.8987C2.20389 21.7775 0.0116577 19.5891 0.0116577 16.899V5.04201C0.0116577 2.35192 2.20389 0.163513 4.8987 0.163513H12.6413C13.3952 0.163513 14.0056 0.772845 14.0056 1.52538C14.0056 2.27791 13.3952 2.88725 12.6413 2.88725H4.8987C3.70871 2.88725 2.74112 3.85314 2.74112 5.04105V16.899C2.74112 18.0869 3.70871 19.0528 4.8987 19.0528H12.6413C13.3952 19.0528 14.0056 19.6621 14.0056 20.4147C14.0056 21.1672 13.3952 21.7765 12.6413 21.7765V21.7775ZM19.2594 17.7885C18.9542 17.7885 18.6471 17.6867 18.3929 17.4781C17.8114 16.9995 17.7286 16.1412 18.2071 15.5607L20.8716 12.3324H9.15511C8.40126 12.3324 7.79086 11.723 7.79086 10.9705C7.79086 10.218 8.40126 9.60864 9.15511 9.60864H20.8699L18.2071 6.38232C17.7277 5.80182 17.8114 4.94356 18.3929 4.46494C18.9745 3.98728 19.8352 4.06993 20.3137 4.65043L24.8156 10.1065C25.2306 10.6092 25.2306 11.3358 24.8156 11.8384L20.3137 17.2936C20.0441 17.6204 19.6532 17.7895 19.2594 17.7895V17.7885Z" fill="#141414"/>
</svg>
